<?xml version="1.0" encoding="UTF-8" standalone="no"?>
<!-- Generator: Adobe Illustrator 26.0.2, SVG Export Plug-In . SVG Version: 6.00 Build 0)  -->

<svg
   xmlns:dc="http://purl.org/dc/elements/1.1/"
   xmlns:cc="http://creativecommons.org/ns#"
   xmlns:rdf="http://www.w3.org/1999/02/22-rdf-syntax-ns#"
   xmlns:svg="http://www.w3.org/2000/svg"
   xmlns="http://www.w3.org/2000/svg"
   xmlns:sodipodi="http://sodipodi.sourceforge.net/DTD/sodipodi-0.dtd"
   xmlns:inkscape="http://www.inkscape.org/namespaces/inkscape"
   version="1.1"
   id="Layer_1"
   x="0px"
   y="0px"
   viewBox="0 0 3023.6221 1133.8582"
   xml:space="preserve"
   sodipodi:docname="00_setup_a.svg"
   width="800mm"
   height="300mm"
   inkscape:version="0.92.3 (2405546, 2018-03-11)"><metadata
   id="metadata239"><rdf:RDF><cc:Work
       rdf:about=""><dc:format>image/svg+xml</dc:format><dc:type
         rdf:resource="http://purl.org/dc/dcmitype/StillImage" /><dc:title></dc:title></cc:Work></rdf:RDF></metadata><defs
   id="defs237" /><sodipodi:namedview
   pagecolor="#ffffff"
   bordercolor="#666666"
   borderopacity="1"
   objecttolerance="10"
   gridtolerance="10"
   guidetolerance="10"
   inkscape:pageopacity="0"
   inkscape:pageshadow="2"
   inkscape:window-width="1299"
   inkscape:window-height="713"
   id="namedview235"
   showgrid="false"
   units="mm"
   inkscape:zoom="0.18932404"
   inkscape:cx="1788.3949"
   inkscape:cy="411.99205"
   inkscape:window-x="67"
   inkscape:window-y="27"
   inkscape:window-maximized="1"
   inkscape:current-layer="Layer_1" />
<style
   type="text/css"
   id="style2">
	.st0{fill:none;stroke:#000000;stroke-width:4;stroke-miterlimit:10;}
	.st1{stroke:#000000;stroke-width:4;stroke-miterlimit:10;}
	.st2{opacity:0;fill:none;stroke:#000000;stroke-width:1.000000e-06;stroke-miterlimit:10;}
	.st3{opacity:0;fill:none;stroke:#000000;stroke-width:9.999999e-07;stroke-miterlimit:10;}
	.st4{fill:none;}
	.st5{font-family:'Helvetica-Light';}
	.st6{font-size:100px;}
	.st7{font-size:50px;}
	.st8{fill:#FFFFFF;stroke:#000000;stroke-miterlimit:10;}
	.st9{fill:none;stroke:#000000;stroke-miterlimit:10;}
	.st10{fill:#FFFFFF;}
	.st11{font-size:31.7543px;}
	.st12{fill:none;stroke:#4558A7;stroke-width:2;stroke-miterlimit:10;}
	.st13{font-family:'Helvetica';}
	.st14{font-size:20px;}
	.st15{fill:none;stroke:#000000;stroke-width:2;stroke-miterlimit:10;}
	.st16{font-size:25px;}
</style>
<rect
   x="1383.467"
   y="292.58618"
   class="st0"
   width="67.986519"
   height="703.55475"
   id="rect4"
   style="fill:none;stroke:#000000;stroke-width:5.09453106;stroke-miterlimit:10" />
<line
   class="st0"
   x1="1096.6577"
   y1="427.62952"
   x2="1384.2058"
   y2="321.54868"
   id="line6"
   style="fill:none;stroke:#000000;stroke-width:5.09453106;stroke-miterlimit:10" />
<line
   class="st0"
   x1="1146.5841"
   y1="545.60614"
   x2="1382.601"
   y2="460.93506"
   id="line8"
   style="fill:none;stroke:#000000;stroke-width:5.09453106;stroke-miterlimit:10" />
<line
   class="st0"
   x1="1153.2451"
   y1="630.85034"
   x2="1383.467"
   y2="630.85034"
   id="line10"
   style="fill:none;stroke:#000000;stroke-width:5.09453106;stroke-miterlimit:10" />
<line
   class="st0"
   x1="1143.3872"
   y1="686.68646"
   x2="1383.0721"
   y2="764.31415"
   id="line12"
   style="fill:none;stroke:#000000;stroke-width:5.09453106;stroke-miterlimit:10" />
<line
   class="st0"
   x1="1071.3379"
   y1="818.62189"
   x2="1383.6837"
   y2="939.00568"
   id="line14"
   style="fill:none;stroke:#000000;stroke-width:5.09453106;stroke-miterlimit:10" />
<g
   id="g20"
   transform="matrix(1.2736328,0,0,1.2736328,20.361583,-480.47069)">
	<g
   id="g18">
		<path
   d="m 1097.24,757.56 c -5.81,0 -10.53,-4.71 -10.53,-10.53 0,-5.81 4.71,-10.53 10.53,-10.53 5.81,0 10.53,4.71 10.53,10.53 0,5.81 -4.72,10.53 -10.53,10.53 z"
   id="path16"
   inkscape:connector-curvature="0" />
	</g>
</g>
<circle
   class="st0"
   cx="831.11798"
   cy="617.69373"
   r="320.40781"
   id="circle22"
   style="fill:none;stroke:#000000;stroke-width:5.09453106;stroke-miterlimit:10" />
<circle
   class="st1"
   cx="693.92224"
   cy="749.69287"
   r="18.633247"
   id="circle24"
   style="stroke:#000000;stroke-width:5.09453106;stroke-miterlimit:10" />
<circle
   class="st1"
   cx="1021.335"
   cy="498.12506"
   r="18.633247"
   id="circle26"
   style="stroke:#000000;stroke-width:5.09453106;stroke-miterlimit:10" />
<circle
   class="st1"
   cx="1006.268"
   cy="728.71619"
   r="18.633247"
   id="circle28"
   style="stroke:#000000;stroke-width:5.09453106;stroke-miterlimit:10" />
<circle
   class="st1"
   cx="848.0318"
   cy="623.1449"
   r="18.633247"
   id="circle30"
   style="stroke:#000000;stroke-width:5.09453106;stroke-miterlimit:10" />
<circle
   class="st1"
   cx="841.63818"
   cy="807.65588"
   r="18.633247"
   id="circle32"
   style="stroke:#000000;stroke-width:5.09453106;stroke-miterlimit:10" />
<circle
   class="st1"
   cx="636.7489"
   cy="497.88306"
   r="18.633247"
   id="circle34"
   style="stroke:#000000;stroke-width:5.09453106;stroke-miterlimit:10" />
<circle
   transform="rotate(-70.001229)"
   class="st1"
   cx="-130.27647"
   cy="920.15692"
   id="ellipse36"
   r="18.633247"
   style="stroke:#000000;stroke-width:5.09453106;stroke-miterlimit:10" />
<path
   class="st0"
   d="m 637.84422,534.34716 c -1.03164,52.23168 28.84778,99.01221 74.08722,117.16147 54.33317,21.8046 103.76286,-8.53333 108.83192,-11.75563"
   id="path38"
   inkscape:connector-curvature="0"
   style="fill:none;stroke:#000000;stroke-width:5.09453106;stroke-miterlimit:10" />
<path
   class="st0"
   d="m 844.70765,467.44323 c 20.70927,7.92199 84.46733,35.34331 126.14059,105.34216 31.12756,52.28263 34.61736,102.59112 34.71926,126.17881"
   id="path40"
   inkscape:connector-curvature="0"
   style="fill:none;stroke:#000000;stroke-width:5.09453106;stroke-miterlimit:10" />
<path
   class="st0"
   d="m 861.73612,779.25401 c 5.20916,-5.65493 11.62827,-11.28438 19.51206,-16.13692 38.2854,-23.524 82.37857,-10.88956 93.87947,-7.20877"
   id="path42"
   inkscape:connector-curvature="0"
   style="fill:none;stroke:#000000;stroke-width:5.09453106;stroke-miterlimit:10" />
<g
   id="g52"
   transform="matrix(1.2736328,0,0,1.2736328,20.361583,-480.47069)">
	<g
   id="g50">
		<path
   class="st0"
   d="m 538.78,584.75 c -0.99,-13.29 0.68,-30.53 10.8,-47.59 22.66,-38.2 66.43,-39.7 68.72,-39.74 3.05,-0.05 48.46,-0.02 70.37,38.08 18.04,31.37 5.83,63.64 4.14,67.89"
   id="path44"
   inkscape:connector-curvature="0"
   style="fill:none;stroke:#000000;stroke-width:4;stroke-miterlimit:10" />
		<g
   id="g48">
			<path
   d="m 543.78,608.36 c 1.93,-11.96 6.24,-27.19 12.01,-37.24 l -17.32,10.45 -19.99,-3.05 c 9.17,7.09 18.96,19.52 25.3,29.84 z"
   id="path46"
   inkscape:connector-curvature="0" />
		</g>
	</g>
</g>
<path
   class="st0"
   d="m 825.756,774.87272 c -60.01358,-77.01658 -50.99626,-179.59497 7.19602,-230.99879 40.97277,-36.19664 103.26615,-44.33516 160.47773,-24.07166"
   id="path54"
   inkscape:connector-curvature="0"
   style="fill:none;stroke:#000000;stroke-width:5.09453106;stroke-miterlimit:10" />
<path
   class="st0"
   d="m 780.65666,461.94113 c -19.89414,18.06012 -52.81755,52.76661 -74.96602,106.3356 -28.26191,68.36861 -23.20559,129.32469 -19.18091,156.89884"
   id="path56"
   inkscape:connector-curvature="0"
   style="fill:none;stroke:#000000;stroke-width:5.09453106;stroke-miterlimit:10" />
<path
   class="st0"
   d="m 881.77037,625.01707 c 49.74809,32.26112 109.9145,24.33913 138.96603,-10.69851 27.4723,-33.13993 17.054,-78.34115 15.5766,-84.32723"
   id="path58"
   inkscape:connector-curvature="0"
   style="fill:none;stroke:#000000;stroke-width:5.09453106;stroke-miterlimit:10" />
<line
   class="st0"
   x1="268.89828"
   y1="527.67334"
   x2="525.58624"
   y2="527.67334"
   id="line60"
   style="fill:none;stroke:#000000;stroke-width:5.09453106;stroke-miterlimit:10" />
<line
   class="st0"
   x1="268.93649"
   y1="709.89191"
   x2="523.19177"
   y2="709.89191"
   id="line62"
   style="fill:none;stroke:#000000;stroke-width:5.09453106;stroke-miterlimit:10" />
<polygon
   class="st2"
   points=""
   id="polygon64"
   transform="matrix(1.2736328,0,0,1.2736328,20.361583,-480.47069)" />
<path
   class="st0"
   d="m 700.06118,788.13123 c 38.87127,56.2691 105.55869,86.26315 172.09326,77.2713 94.9748,-12.83822 136.07496,-97.86594 138.72406,-103.61002"
   id="path66"
   inkscape:connector-curvature="0"
   style="fill:none;stroke:#000000;stroke-width:5.09453106;stroke-miterlimit:10" />
<path
   class="st0"
   d="m 819.46425,601.98979 c -2.72557,-1.69393 -37.4448,-24.16081 -38.62928,-66.72562 -1.08259,-38.71843 26.47883,-62.20422 29.85395,-64.968"
   id="path68"
   inkscape:connector-curvature="0"
   style="fill:none;stroke:#000000;stroke-width:5.09453106;stroke-miterlimit:10" />
<path
   class="st0"
   d="m 643.8685,457.99287 c 7.2215,-9.60319 29.71386,-36.96082 70.24085,-49.17496 36.48958,-10.99145 67.14592,-3.55343 79.01618,0"
   id="path70"
   inkscape:connector-curvature="0"
   style="fill:none;stroke:#000000;stroke-width:5.09453106;stroke-miterlimit:10" />
<polygon
   class="st2"
   points=""
   id="polygon72"
   transform="matrix(1.2736328,0,0,1.2736328,20.361583,-480.47069)" />
<path
   d="m 129.67749,536.89442 c 0.5604,-2.43264 2.71283,-11.04239 9.25931,-11.04239 0.4585,0 2.71283,0 4.67423,1.22268 -2.62368,0.47125 -4.48319,2.802 -4.48319,5.04359 0,1.50289 1.03164,3.27324 3.55344,3.27324 2.06328,0 5.04358,-1.6812 5.04358,-5.42568 0,-4.86528 -5.51483,-6.17712 -8.69891,-6.17712 -5.42567,0 -8.69891,4.95443 -9.81971,7.10687 -2.34348,-6.17712 -7.38707,-7.10687 -10.09991,-7.10687 -9.73055,0 -15.05434,12.0613 -15.05434,14.39205 0,0.92975 0.92975,0.92975 1.1208,0.92975 0.75144,0 1.03164,-0.19104 1.22269,-1.03164 3.17134,-9.90886 9.34846,-12.25235 12.53255,-12.25235 1.77035,0 5.04358,0.8406 5.04358,6.26628 0,2.90388 -1.59204,9.17015 -5.04358,22.2631 -1.50289,5.79503 -4.77613,9.71782 -8.88996,9.71782 -0.5604,0 -2.71284,0 -4.67424,-1.22269 2.34349,-0.47125 4.39404,-2.43264 4.39404,-5.04359 0,-2.52179 -2.05055,-3.27323 -3.46428,-3.27323 -2.802,0 -5.14548,2.43263 -5.14548,5.42567 0,4.30488 4.67423,6.17712 8.78807,6.17712 6.17712,0 9.53951,-6.54647 9.81971,-7.10687 1.12079,3.46428 4.48318,7.10687 10.09991,7.10687 9.62866,0 14.96518,-12.0613 14.96518,-14.40479 0,-0.92975 -0.8406,-0.92975 -1.1208,-0.92975 -0.84059,0 -1.03164,0.36936 -1.22268,1.03164 -3.0822,10.01076 -9.45036,12.25235 -12.43066,12.25235 -3.64259,0 -5.14548,-2.99303 -5.14548,-6.17712 0,-2.06328 0.5604,-4.11383 1.59204,-8.22766 l 3.18409,-12.78728"
   id="path74"
   inkscape:connector-curvature="0"
   style="stroke-width:1.27363276" />
<path
   d="m 182.77524,563.37325 c 0,-0.2802 0,-0.47125 -1.59204,-2.05055 -11.69195,-11.7811 -14.67225,-29.45913 -14.67225,-43.76202 0,-16.27703 3.55343,-32.54132 15.05434,-44.23327 1.22268,-1.1208 1.22268,-1.31184 1.22268,-1.59204 0,-0.64955 -0.36935,-0.92975 -0.92975,-0.92975 -0.92975,0 -9.34846,6.35543 -14.86329,18.23842 -4.77613,10.29095 -5.89692,20.67106 -5.89692,28.51664 0,7.29791 1.0189,18.60777 6.17712,29.17892 5.60398,11.50091 13.65334,17.57614 14.58309,17.57614 0.54766,0 0.91702,-0.29294 0.91702,-0.94249"
   id="path76"
   inkscape:connector-curvature="0"
   style="stroke-width:1.27363276" />
<path
   d="m 207.53466,503.52524 h 8.78806 c 1.87224,0 2.802,0 2.802,-1.87224 0,-1.03164 -0.92976,-1.03164 -2.62369,-1.03164 h -8.22767 c 3.36239,-13.27125 3.83364,-15.14349 3.83364,-15.70389 0,-1.59204 -1.1208,-2.52179 -2.71284,-2.52179 -0.2802,0 -2.90388,0.0892 -3.74448,3.36239 l -3.64259,14.86329 h -8.78806 c -1.87224,0 -2.802,0 -2.802,1.78309 0,1.12079 0.75145,1.12079 2.61095,1.12079 h 8.22767 c -6.73752,26.55525 -7.10687,28.14729 -7.10687,29.82848 0,5.04359 3.55343,8.60976 8.60975,8.60976 9.53951,0 14.8633,-13.65334 14.8633,-14.40479 0,-0.92975 -0.75144,-0.92975 -1.1208,-0.92975 -0.8406,0 -0.92975,0.2802 -1.40099,1.31184 -4.02468,9.73056 -8.97911,11.97215 -12.15046,11.97215 -1.96139,0 -2.90388,-1.22269 -2.90388,-4.30488 0,-2.24159 0.19104,-2.90388 0.5604,-4.48318 l 6.92856,-27.59963"
   id="path78"
   inkscape:connector-curvature="0"
   style="stroke-width:1.27363276" />
<path
   d="m 248.88951,517.56068 c 0,-7.29792 -1.03164,-18.60778 -6.17712,-29.17893 -5.60398,-11.5009 -13.65334,-17.57613 -14.58309,-17.57613 -0.5604,0 -0.92975,0.36935 -0.92975,0.92975 0,0.2802 0,0.47124 1.78308,2.15244 9.15742,9.25931 14.49394,24.1226 14.49394,43.67287 0,15.98409 -3.46428,32.45216 -15.05434,44.23326 -1.22268,1.1208 -1.22268,1.31184 -1.22268,1.59204 0,0.5604 0.36935,0.92976 0.92975,0.92976 0.92975,0 9.34846,-6.35543 14.86329,-18.23843 4.77613,-10.29095 5.89692,-20.67105 5.89692,-28.51663"
   id="path80"
   inkscape:connector-curvature="0"
   style="stroke-width:1.27363276" />
<path
   class="st3"
   d="M 175.78299,517.24227"
   id="path82"
   inkscape:connector-curvature="0"
   style="stroke-width:1.27363276" />
<rect
   x="100.2693"
   y="469.07349"
   class="st4"
   width="151.01463"
   height="96.337578"
   id="rect84"
   style="fill:none;stroke-width:1.27363276" />
<polygon
   class="st2"
   points=""
   id="polygon86"
   transform="matrix(1.2736328,0,0,1.2736328,20.361583,-480.47069)" />
<path
   d="m 146.09461,716.08183 c 0.36936,-1.31184 0.36936,-1.50289 0.36936,-2.15244 0,-1.6812 -1.31185,-2.52179 -2.71284,-2.52179 -0.92975,0 -2.43264,0.56039 -3.27324,1.96139 -0.19104,0.47124 -0.92975,3.36239 -1.31184,5.04359 -0.64955,2.43263 -1.31184,4.95443 -1.87224,7.47622 l -4.20299,16.82469 c -0.36935,1.401 -4.39403,7.94747 -10.57115,7.94747 -4.77612,0 -5.80776,-4.11384 -5.80776,-7.57812 0,-4.30488 1.59204,-10.0999 4.77612,-18.32757 1.49015,-3.83364 1.87224,-4.86528 1.87224,-6.73752 0,-4.20299 -2.99304,-7.66727 -7.66727,-7.66727 -8.88996,0 -12.34151,13.55145 -12.34151,14.39205 0,0.92975 0.92976,0.92975 1.1208,0.92975 0.92975,0 1.03164,-0.19104 1.50289,-1.68119 2.52179,-8.78807 6.26627,-11.59006 9.45036,-11.59006 0.75144,0 2.33074,0 2.33074,2.99304 0,2.33074 -0.92975,4.76338 -1.59204,6.54647 -3.74448,9.90886 -5.42568,15.24538 -5.42568,19.63942 0,8.31682 5.89693,11.13155 11.41176,11.13155 3.64259,0 6.82667,-1.59204 9.43762,-4.20299 -1.22269,4.86528 -2.34349,9.43762 -6.07523,14.39205 -2.43264,3.18408 -5.98608,5.89692 -10.29096,5.89692 -1.31184,0 -5.51483,-0.2802 -7.10687,-3.92279 1.50289,0 2.71284,0 4.02468,-1.1208 0.92975,-0.8406 1.87224,-2.06328 1.87224,-3.83363 0,-2.90388 -2.52179,-3.27324 -3.46428,-3.27324 -2.15244,0 -5.23463,1.50289 -5.23463,6.07523 0,4.67423 4.11383,8.13851 9.90886,8.13851 9.62867,0 19.25733,-8.50786 21.88102,-19.07902 l 8.99184,-35.69992"
   id="path88"
   inkscape:connector-curvature="0"
   style="stroke-width:1.27363276" />
<path
   d="m 180.80111,761.41042 c 0,-0.2802 0,-0.47125 -1.59205,-2.05055 -11.69194,-11.7811 -14.67224,-29.45913 -14.67224,-43.76202 0,-16.27703 3.55343,-32.54133 15.05433,-44.23328 1.22269,-1.1208 1.22269,-1.31184 1.22269,-1.59204 0,-0.64955 -0.36935,-0.92975 -0.92975,-0.92975 -0.92975,0 -9.34846,6.35542 -14.86329,18.23842 -4.77613,10.29096 -5.89692,20.67107 -5.89692,28.51665 0,7.29791 1.0189,18.60777 6.17712,29.17892 5.60398,11.50091 13.65334,17.57614 14.58309,17.57614 0.54766,0 0.91702,-0.2802 0.91702,-0.94249"
   id="path90"
   inkscape:connector-curvature="0"
   style="stroke-width:1.27363276" />
<path
   d="m 205.57326,701.56241 h 8.78807 c 1.87224,0 2.80199,0 2.80199,-1.87224 0,-1.03164 -0.92975,-1.03164 -2.62368,-1.03164 h -8.22767 c 3.36239,-13.27126 3.83363,-15.1435 3.83363,-15.7039 0,-1.59204 -1.12079,-2.5218 -2.71283,-2.5218 -0.2802,0 -2.90389,0.0892 -3.74448,3.3624 l -3.64259,14.8633 h -8.78807 c -1.87224,0 -2.80199,0 -2.80199,1.78309 0,1.12079 0.75144,1.12079 2.61095,1.12079 h 8.22766 c -6.73751,26.55525 -7.10687,28.14729 -7.10687,29.82848 0,5.04359 3.55344,8.60976 8.60976,8.60976 9.53951,0 14.86329,-13.65334 14.86329,-14.40478 0,-0.92976 -0.75144,-0.92976 -1.12079,-0.92976 -0.8406,0 -0.92975,0.2802 -1.401,1.31184 -4.02468,9.73056 -8.97911,11.97215 -12.15045,11.97215 -1.9614,0 -2.90389,-1.22268 -2.90389,-4.30488 0,-2.24159 0.19105,-2.90388 0.5604,-4.48318 l 6.92856,-27.59963"
   id="path92"
   inkscape:connector-curvature="0"
   style="stroke-width:1.27363276" />
<path
   d="m 246.91538,715.59785 c 0,-7.29792 -1.03164,-18.60778 -6.17712,-29.17894 -5.60398,-11.50091 -13.65334,-17.57613 -14.58309,-17.57613 -0.5604,0 -0.92975,0.36935 -0.92975,0.92975 0,0.2802 0,0.47124 1.78308,2.15244 9.15742,9.25931 14.49394,24.12262 14.49394,43.67288 0,15.98409 -3.46428,32.45216 -15.05434,44.23326 -1.22268,1.1208 -1.22268,1.31185 -1.22268,1.59204 0,0.5604 0.36935,0.92976 0.92975,0.92976 0.92975,0 9.34846,-6.35543 14.86329,-18.23842 4.77613,-10.29096 5.89692,-20.67106 5.89692,-28.51664"
   id="path94"
   inkscape:connector-curvature="0"
   style="stroke-width:1.27363276" />
<path
   class="st3"
   d="M 175.89762,715.27944"
   id="path96"
   inkscape:connector-curvature="0"
   style="stroke-width:1.27363276" />
<rect
   x="102.98214"
   y="667.11072"
   class="st4"
   width="145.80548"
   height="96.337578"
   id="rect98"
   style="fill:none;stroke-width:1.27363276" />
<polygon
   class="st2"
   points=""
   id="polygon100"
   transform="matrix(1.2736328,0,0,1.2736328,20.361583,-480.47069)" />
<line
   class="st0"
   x1="1120.6656"
   y1="467.40503"
   x2="1382.8303"
   y2="365.73099"
   id="line102"
   style="fill:none;stroke:#000000;stroke-width:5.09453106;stroke-miterlimit:10" />
<line
   class="st0"
   x1="1094.9255"
   y1="789.82507"
   x2="1383.6964"
   y2="898.60608"
   id="line104"
   style="fill:none;stroke:#000000;stroke-width:5.09453106;stroke-miterlimit:10" />
<line
   class="st0"
   x1="1154.3151"
   y1="607.92499"
   x2="1383.3906"
   y2="564.7998"
   id="line106"
   style="fill:none;stroke:#000000;stroke-width:5.09453106;stroke-miterlimit:10" />
<line
   class="st0"
   x1="1149.679"
   y1="657.76221"
   x2="1382.7284"
   y2="699.10431"
   id="line108"
   style="fill:none;stroke:#000000;stroke-width:5.09453106;stroke-miterlimit:10" />
<line
   class="st0"
   x1="1132.5486"
   y1="720.8324"
   x2="1383.4288"
   y2="812.97974"
   id="line110"
   style="fill:none;stroke:#000000;stroke-width:5.09453106;stroke-miterlimit:10" />
<line
   class="st0"
   x1="1136.8153"
   y1="510.95056"
   x2="1381.786"
   y2="415.86118"
   id="line112"
   style="fill:none;stroke:#000000;stroke-width:5.09453106;stroke-miterlimit:10" />
<line
   class="st0"
   x1="1117.4561"
   y1="756.60876"
   x2="1383.467"
   y2="858.3974"
   id="line114"
   style="fill:none;stroke:#000000;stroke-width:5.09453106;stroke-miterlimit:10" />
<g
   id="g124"
   transform="matrix(1.2736328,0,0,1.2736328,20.361583,-480.47069)">
	<g
   id="g122">
		<line
   class="st0"
   x1="1096.71"
   y1="919.46997"
   x2="1101.15"
   y2="919.46997"
   id="line116"
   style="fill:none;stroke:#000000;stroke-width:4;stroke-miterlimit:10" />
		<g
   id="g120">
			<path
   d="m 1097.24,929.99 c -5.81,0 -10.53,-4.71 -10.53,-10.53 0,-5.81 4.71,-10.53 10.53,-10.53 5.81,0 10.53,4.71 10.53,10.53 0,5.82 -4.72,10.53 -10.53,10.53 z"
   id="path118"
   inkscape:connector-curvature="0" />
		</g>
	</g>
</g>
<g
   id="g134"
   transform="matrix(1.2736328,0,0,1.2736328,20.361583,-480.47069)">
	<g
   id="g132">
		<line
   class="st0"
   x1="1096.71"
   y1="1091.9"
   x2="1104.6"
   y2="1091.9"
   id="line126"
   style="fill:none;stroke:#000000;stroke-width:4;stroke-miterlimit:10" />
		<g
   id="g130">
			<path
   d="m 1097.24,1102.43 c -5.81,0 -10.53,-4.71 -10.53,-10.53 0,-5.81 4.71,-10.53 10.53,-10.53 5.81,0 10.53,4.71 10.53,10.53 0,5.82 -4.72,10.53 -10.53,10.53 z"
   id="path128"
   inkscape:connector-curvature="0" />
		</g>
	</g>
</g>
<line
   class="st0"
   x1="1151.564"
   y1="574.77234"
   x2="1381.8113"
   y2="510.67041"
   id="line136"
   style="fill:none;stroke:#000000;stroke-width:5.09453106;stroke-miterlimit:10" />
<polygon
   class="st2"
   points=""
   id="polygon138"
   transform="matrix(1.2736328,0,0,1.2736328,20.361583,-480.47069)" />
<polygon
   class="st2"
   points=""
   id="polygon140"
   transform="matrix(1.2736328,0,0,1.2736328,20.361583,-480.47069)" />
<g
   id="g150"
   transform="matrix(1.2736328,0,0,1.2736328,20.361583,-480.47069)">
	<g
   id="g148">
		<line
   class="st0"
   x1="1096.71"
   y1="660.81"
   x2="1101.15"
   y2="660.81"
   id="line142"
   style="fill:none;stroke:#000000;stroke-width:4;stroke-miterlimit:10" />
		<g
   id="g146">
			<path
   d="m 1097.24,671.34 c -5.81,0 -10.53,-4.71 -10.53,-10.53 0,-5.81 4.71,-10.53 10.53,-10.53 5.81,0 10.53,4.71 10.53,10.53 0,5.82 -4.72,10.53 -10.53,10.53 z"
   id="path144"
   inkscape:connector-curvature="0" />
		</g>
	</g>
</g>
<g
   id="g160"
   transform="matrix(1.2736328,0,0,1.2736328,20.361583,-480.47069)">
	<g
   id="g158">
		<line
   class="st0"
   x1="1096.71"
   y1="833.25"
   x2="1101.15"
   y2="833.25"
   id="line152"
   style="fill:none;stroke:#000000;stroke-width:4;stroke-miterlimit:10" />
		<g
   id="g156">
			<path
   d="m 1097.24,843.78 c -5.81,0 -10.53,-4.71 -10.53,-10.53 0,-5.82 4.71,-10.53 10.53,-10.53 5.81,0 10.53,4.71 10.53,10.53 0,5.82 -4.72,10.53 -10.53,10.53 z"
   id="path154"
   inkscape:connector-curvature="0" />
		</g>
	</g>
</g>
<g
   id="g170"
   transform="matrix(1.2736328,0,0,1.2736328,20.361583,-480.47069)">
	<g
   id="g168">
		<line
   class="st0"
   x1="1096.71"
   y1="1005.68"
   x2="1104.6"
   y2="1005.68"
   id="line162"
   style="fill:none;stroke:#000000;stroke-width:4;stroke-miterlimit:10" />
		<g
   id="g166">
			<path
   d="m 1097.24,1016.21 c -5.81,0 -10.53,-4.71 -10.53,-10.53 0,-5.81 4.71,-10.53 10.53,-10.53 5.81,0 10.53,4.71 10.53,10.53 0,5.82 -4.72,10.53 -10.53,10.53 z"
   id="path164"
   inkscape:connector-curvature="0" />
		</g>
	</g>
</g>
<text
   class="st5 st6"
   id="text172"
   style="font-size:127.36327362px;font-family:Helvetica-Light;stroke-width:1.27363276"
   x="48.964317"
   y="544.98151">v</text>

<text
   class="st5 st6"
   id="text174"
   style="font-size:127.36327362px;font-family:Helvetica-Light;stroke-width:1.27363276"
   x="44.719429"
   y="735.37073">v</text>

<text
   class="st5 st7"
   id="text176"
   style="font-size:63.68163681px;font-family:Helvetica-Light;stroke-width:1.27363276"
   x="1171.6067"
   y="225.17896">Place Cell Outputs</text>

<g
   id="g186"
   transform="matrix(1.2736328,0,0,1.2736328,20.361583,-480.47069)">
	<g
   id="g184">
		<line
   class="st0"
   x1="1319.78"
   y1="761.47998"
   x2="1175.01"
   y2="886.27002"
   id="line178"
   style="fill:none;stroke:#000000;stroke-width:4;stroke-miterlimit:10" />
		<g
   id="g182">
			<polygon
   points="1153.27,905.01 1192.45,897.57 1166.41,867.35 "
   id="polygon180" />
		</g>
	</g>
</g>
<text
   class="st5 st7"
   id="text188"
   style="font-size:63.68163681px;font-family:Helvetica-Light;stroke-width:1.27363276"
   x="46.884094"
   y="361.16095">Velocity Inputs</text>

<text
   id="text194"
   x="1525.9501"
   y="389.46585"
   style="font-size:15.28359318px;stroke-width:1.27363276"><tspan
     x="1525.9501"
     y="389.46585"
     class="st5 st7"
     id="tspan190"
     style="font-size:63.68163681px;font-family:Helvetica-Light;stroke-width:1.27363276">Supervised</tspan><tspan
     x="1525.9501"
     y="465.88379"
     class="st5 st7"
     id="tspan192"
     style="font-size:63.68163681px;font-family:Helvetica-Light;stroke-width:1.27363276"> Learning</tspan></text>

<rect
   x="1904.5525"
   y="35.13324"
   class="st8"
   width="1076.8236"
   height="1076.8236"
   id="rect196"
   style="fill:#ffffff;stroke:#000000;stroke-width:2.67593646;stroke-miterlimit:10" />
<g
   id="g210"
   transform="matrix(2.6759364,0,0,2.6759364,-546.57848,-89.618856)">
	<g
   id="g208">
		<line
   class="st9"
   x1="1278.6801"
   y1="425.91"
   x2="968.69"
   y2="425.91"
   id="line198"
   style="fill:none;stroke:#000000;stroke-miterlimit:10" />
		<g
   id="g202">
			<path
   d="m 1284.71,425.91 c -2.84,-1.05 -6.36,-2.85 -8.55,-4.76 l 1.72,4.76 -1.72,4.75 c 2.19,-1.89 5.71,-3.69 8.55,-4.75 z"
   id="path200"
   inkscape:connector-curvature="0" />
		</g>
		<g
   id="g206">
			<path
   d="m 962.65,425.91 c 2.84,-1.05 6.36,-2.85 8.55,-4.76 l -1.72,4.76 1.72,4.75 c -2.18,-1.89 -5.71,-3.69 -8.55,-4.75 z"
   id="path204"
   inkscape:connector-curvature="0" />
		</g>
	</g>
</g>
<rect
   x="2341.4795"
   y="993.73413"
   class="st10"
   width="275.22006"
   height="99.170204"
   id="rect212"
   style="fill:#ffffff;stroke-width:2.67593646" />
<text
   class="st5 st11"
   id="text214"
   style="font-size:84.9724884px;font-family:Helvetica-Light;stroke-width:2.67593646"
   x="2379.8467"
   y="1066.3759">2.2 m</text>

<path
   class="st12"
   d="m 2141.8009,119.13093 c -10.356,80.11754 -10.1686,188.7338 54.7764,269.09217 89.617,110.8908 227.8827,75.62196 364.3554,176.23717 67.5942,49.82594 147.0427,142.06549 188.1452,328.63176"
   id="path216"
   inkscape:connector-curvature="0"
   style="fill:none;stroke:#4558a7;stroke-width:5.35187292;stroke-miterlimit:10" />
<text
   class="st13 st14"
   id="text218"
   style="font-size:53.51873016px;font-family:Helvetica;stroke-width:2.67593646"
   x="2187.8289"
   y="112.26628">start</text>

<text
   class="st13 st14"
   id="text220"
   style="font-size:53.51873016px;font-family:Helvetica;stroke-width:2.67593646"
   x="2713.4944"
   y="971.59003">end</text>

<line
   class="st12"
   x1="2482.6887"
   y1="510.56683"
   x2="2426.9219"
   y2="506.09808"
   id="line222"
   style="fill:none;stroke:#4558a7;stroke-width:5.35187292;stroke-miterlimit:10" />
<polyline
   class="st15"
   points="1225.87,374.98 1237.42,343.86 1214.33,329.32 1216.9,289.13 1190.39,289.13 1190.82,267.33   1134.81,236.12 1132.04,224.29 1111.2,222.62 1086.34,224.44 1086.93,224.58 1055.29,195.51 1013.39,171.56 1022.77,125.82   995.43,109.14 1014.67,85.63 "
   id="polyline224"
   style="fill:none;stroke:#000000;stroke-width:2;stroke-miterlimit:10"
   transform="matrix(2.6759364,0,0,2.6759364,-546.57848,-89.618856)" />
<line
   class="st15"
   x1="2377.9526"
   y1="153.08859"
   x2="2499.761"
   y2="153.08859"
   id="line226"
   style="fill:none;stroke:#000000;stroke-width:5.35187292;stroke-miterlimit:10" />
<line
   class="st12"
   x1="2377.9526"
   y1="253.70374"
   x2="2499.761"
   y2="253.70374"
   id="line228"
   style="fill:none;stroke:#4558a7;stroke-width:5.35187292;stroke-miterlimit:10" />
<text
   class="st5 st16"
   id="text230"
   style="font-size:66.89840698px;font-family:Helvetica-Light;stroke-width:2.67593646"
   x="2530.342"
   y="269.61871">true path</text>

<text
   class="st5 st16"
   id="text232"
   style="font-size:66.89840698px;font-family:Helvetica-Light;stroke-width:2.67593646"
   x="2524.2822"
   y="159.12521">decoded path</text>

</svg>